<?xml version="1.0" encoding="utf-8"?>
<svg xmlns="http://www.w3.org/2000/svg" xmlns:xlink="http://www.w3.org/1999/xlink" style="margin: auto; background: none; display: block; shape-rendering: auto;" width="64px" height="64px" viewBox="0 0 100 100" preserveAspectRatio="xMidYMid">
<g transform="translate(50 50)">
<g>
<animateTransform attributeName="transform" type="rotate" values="0;40" keyTimes="0;1" dur="0.2s" repeatCount="indefinite"></animateTransform><path d="M33.16247879758086 -7.5 L41.16247879758086 -7.5 L41.16247879758086 7.5 L33.16247879758086 7.5 A34 34 0 0 1 30.22483967558679 15.571097154185203 L30.22483967558679 15.571097154185203 L36.35319522053861 20.713398031677517 L26.711381075240524 32.20406467846219 L20.5830255302887 27.061763800969874 A34 34 0 0 1 13.144662157709691 31.35630489645862 L13.144662157709691 31.35630489645862 L14.533847579045133 39.23476692055628 L-0.23826871613797973 41.83948958556024 L-1.627454137473423 33.96102756146257 A34 34 0 0 1 -10.086048870407135 32.46954909116785 L-10.086048870407135 32.46954909116785 L-14.086048870407133 39.397752321443356 L-27.076429927173717 31.897752321443363 L-23.076429927173717 24.969549091167853 A34 34 0 0 1 -28.597385538113357 18.38993040727738 L-28.597385538113357 18.38993040727738 L-36.11492650440062 21.12609155388273 L-41.24522865428566 7.030702242094095 L-33.7276876879984 4.294541095488744 A34 34 0 0 1 -33.7276876879984 -4.294541095488736 L-33.7276876879984 -4.294541095488736 L-41.24522865428566 -7.030702242094085 L-36.11492650440063 -21.126091553882723 L-28.59738553811336 -18.389930407277372 A34 34 0 0 1 -23.076429927173734 -24.969549091167835 L-23.076429927173734 -24.969549091167835 L-27.07642992717374 -31.897752321443342 L-14.08604887040717 -39.39775232144335 L-10.086048870407165 -32.46954909116784 A34 34 0 0 1 -1.6274541374734315 -33.96102756146257 L-1.6274541374734315 -33.96102756146257 L-0.23826871613799172 -41.83948958556024 L14.533847579045112 -39.23476692055629 L13.144662157709671 -31.356304896458628 A34 34 0 0 1 20.583025530288698 -27.061763800969874 L20.583025530288698 -27.061763800969874 L26.711381075240517 -32.20406467846219 L36.3531952205386 -20.713398031677542 L30.22483967558678 -15.571097154185225 A34 34 0 0 1 33.16247879758086 -7.499999999999998 M0 -16A16 16 0 1 0 0 16 A16 16 0 1 0 0 -16" fill="#ffffff"></path></g></g>
<!-- [ldio] generated by https://loading.io/ --></svg>